<?xml version="1.0" encoding="UTF-8" standalone="no"?>
<!-- Created with Inkscape (http://www.inkscape.org/) -->

<svg
   xmlns:dc="http://purl.org/dc/elements/1.1/"
   xmlns:cc="http://creativecommons.org/ns#"
   xmlns:rdf="http://www.w3.org/1999/02/22-rdf-syntax-ns#"
   xmlns:svg="http://www.w3.org/2000/svg"
   xmlns="http://www.w3.org/2000/svg"
   xmlns:sodipodi="http://sodipodi.sourceforge.net/DTD/sodipodi-0.dtd"
   xmlns:inkscape="http://www.inkscape.org/namespaces/inkscape"
   width="96"
   height="96"
   id="svg6517"
   version="1.1"
   inkscape:version="0.91 r13725"
   sodipodi:docname="PGLogo2.svg">
  <defs
     id="defs6519">
    <linearGradient
       id="Background">
      <stop
         id="stop4178"
         offset="0"
         style="stop-color:#b8b8b8;stop-opacity:1" />
      <stop
         id="stop4180"
         offset="1"
         style="stop-color:#c9c9c9;stop-opacity:1" />
    </linearGradient>
    <filter
       style="color-interpolation-filters:sRGB;"
       inkscape:label="Inner Shadow"
       id="filter1121">
      <feFlood
         flood-opacity="0.59999999999999998"
         flood-color="rgb(0,0,0)"
         result="flood"
         id="feFlood1123" />
      <feComposite
         in="flood"
         in2="SourceGraphic"
         operator="out"
         result="composite1"
         id="feComposite1125" />
      <feGaussianBlur
         in="composite1"
         stdDeviation="1"
         result="blur"
         id="feGaussianBlur1127" />
      <feOffset
         dx="0"
         dy="2"
         result="offset"
         id="feOffset1129" />
      <feComposite
         in="offset"
         in2="SourceGraphic"
         operator="atop"
         result="composite2"
         id="feComposite1131" />
    </filter>
    <filter
       style="color-interpolation-filters:sRGB;"
       inkscape:label="Drop Shadow"
       id="filter950">
      <feFlood
         flood-opacity="0.25"
         flood-color="rgb(0,0,0)"
         result="flood"
         id="feFlood952" />
      <feComposite
         in="flood"
         in2="SourceGraphic"
         operator="in"
         result="composite1"
         id="feComposite954" />
      <feGaussianBlur
         in="composite1"
         stdDeviation="1"
         result="blur"
         id="feGaussianBlur956" />
      <feOffset
         dx="0"
         dy="1"
         result="offset"
         id="feOffset958" />
      <feComposite
         in="SourceGraphic"
         in2="offset"
         operator="over"
         result="composite2"
         id="feComposite960" />
    </filter>
    <clipPath
       clipPathUnits="userSpaceOnUse"
       id="clipPath873">
      <g
         transform="matrix(0,-0.66666667,0.66604479,0,-258.25992,677.00001)"
         id="g875"
         inkscape:label="Layer 1"
         style="fill:#ff00ff;fill-opacity:1;stroke:none;display:inline">
        <path
           style="fill:#ff00ff;fill-opacity:1;stroke:none;display:inline"
           d="m 46.702703,898.22775 50.594594,0 C 138.16216,898.22775 144,904.06497 144,944.92583 l 0,50.73846 c 0,40.86071 -5.83784,46.69791 -46.702703,46.69791 l -50.594594,0 C 5.8378378,1042.3622 0,1036.525 0,995.66429 L 0,944.92583 C 0,904.06497 5.8378378,898.22775 46.702703,898.22775 Z"
           id="path877"
           inkscape:connector-curvature="0"
           sodipodi:nodetypes="sssssssss" />
      </g>
    </clipPath>
    <filter
       inkscape:collect="always"
       id="filter891"
       inkscape:label="Badge Shadow">
      <feGaussianBlur
         inkscape:collect="always"
         stdDeviation="0.71999962"
         id="feGaussianBlur893" />
    </filter>
  </defs>
  <sodipodi:namedview
     id="base"
     pagecolor="#ffffff"
     bordercolor="#666666"
     borderopacity="1.0"
     inkscape:pageopacity="0.0"
     inkscape:pageshadow="2"
     inkscape:zoom="4.0745362"
     inkscape:cx="57.131043"
     inkscape:cy="49.018169"
     inkscape:document-units="px"
     inkscape:current-layer="layer1"
     showgrid="true"
     fit-margin-top="0"
     fit-margin-left="0"
     fit-margin-right="0"
     fit-margin-bottom="0"
     inkscape:window-width="1366"
     inkscape:window-height="705"
     inkscape:window-x="-8"
     inkscape:window-y="-8"
     inkscape:window-maximized="1"
     showborder="true"
     showguides="true"
     inkscape:guide-bbox="true"
     inkscape:showpageshadow="false">
    <inkscape:grid
       type="xygrid"
       id="grid821" />
    <sodipodi:guide
       orientation="1,0"
       position="16,48"
       id="guide823" />
    <sodipodi:guide
       orientation="0,1"
       position="64,80"
       id="guide825" />
    <sodipodi:guide
       orientation="1,0"
       position="80,40"
       id="guide827" />
    <sodipodi:guide
       orientation="0,1"
       position="64,16"
       id="guide829" />
  </sodipodi:namedview>
  <metadata
     id="metadata6522">
    <rdf:RDF>
      <cc:Work
         rdf:about="">
        <dc:format>image/svg+xml</dc:format>
        <dc:type
           rdf:resource="http://purl.org/dc/dcmitype/StillImage" />
        <dc:title></dc:title>
      </cc:Work>
    </rdf:RDF>
  </metadata>
  <g
     inkscape:label="BACKGROUND"
     inkscape:groupmode="layer"
     id="layer1"
     transform="translate(268,-635.29076)"
     style="display:inline">
    <path
       style="fill:#6d3f88;fill-opacity:0.90980393;stroke:none;display:inline;filter:url(#filter1121)"
       d="m -268,700.15563 0,-33.72973 c 0,-27.24324 3.88785,-31.13513 31.10302,-31.13513 l 33.79408,0 c 27.21507,0 31.1029,3.89189 31.1029,31.13513 l 0,33.72973 c 0,27.24325 -3.88783,31.13514 -31.1029,31.13514 l -33.79408,0 C -264.11215,731.29077 -268,727.39888 -268,700.15563 Z"
       id="path6455"
       inkscape:connector-curvature="0"
       sodipodi:nodetypes="sssssssss" />
  </g>
  <g
     inkscape:groupmode="layer"
     id="layer3"
     inkscape:label="PLACE YOUR PICTOGRAM HERE"
     style="display:inline">
    <path
       d="M 49.716607,33.693205 48.92054,34.473422 60.772731,46.473876 64.069665,43.247393 51.523384,30.569878 c -0.31004,1.13717 -0.893109,2.228492 -1.806777,3.123327 z"
       id="path3"
       inkscape:connector-curvature="0"
       style="fill:#ffffff" />
    <path
       d="m 54.262743,16.957412 -4.986112,4.912997 0.639815,0.659051 c 0.953965,0.966881 1.546081,2.140073 1.823225,3.377942 L 54.226558,23.4595 68.707085,38.120716 c 0.927649,0.941501 0.920247,2.516673 -0.03043,3.449168 l -3.186736,3.115958 -0.0033,-0.0081 -3.294467,3.227301 0.0025,0.0081 L 47.48468,62.29764 c -2.76732,2.722984 -2.812551,7.169325 -0.0806,9.945525 l 6.3488,6.469339 18.036513,-17.64209 c 2.780479,-2.732809 2.815019,-7.170143 0.08389,-9.948799 l 0,0 -1.703156,-1.72745 -3.292001,3.224027 1.702334,1.726631 c 0.936694,0.944776 0.918602,2.519948 -0.02056,3.44753 L 53.822701,72.204687 50.70669,69.019139 c -0.935873,-0.944775 -0.929293,-2.519947 0.01398,-3.444256 l 14.72971,-14.403327 0.01151,0.0098 3.287889,-3.216659 -0.01891,-0.0172 3.186737,-3.097947 c 2.778011,-2.738539 2.811729,-7.169325 0.08224,-9.952893 L 54.262743,16.956593 Z"
       id="path5"
       inkscape:connector-curvature="0"
       style="fill:#ffffff" />
    <path
       d="M 45.917195,72.788417 C 44.964875,71.814169 44.375226,70.640158 44.09726,69.405564 L 41.554451,71.904225 27.070633,57.247921 c -0.934227,-0.943957 -0.916135,-2.523223 0.02878,-3.452443 l 1.736873,-1.701251 -3.233611,-3.273967 -1.739341,1.697157 c -2.783768,2.740177 -2.816663,7.170963 -0.08635,9.955349 l 17.733055,17.938459 5.046145,-4.972763 -0.638992,-0.650045 z"
       id="path7"
       inkscape:connector-curvature="0"
       style="fill:#ffffff" />
    <path
       d="m 23.986695,34.294947 c -2.769788,2.724622 -2.810906,7.175055 -0.07731,9.943887 l 0,0 2.009905,2.033643 8.23e-4,0 4.35781,4.416048 0.01069,-0.0081 14.10141,14.26333 c 0.273031,-1.29354 0.915313,-2.525679 1.930134,-3.527763 l 0.53455,-0.523147 -13.274914,-13.437265 0,0 -3.238547,-3.274787 -0.0082,0.0081 -3.132458,-3.170812 c -0.92765,-0.946413 -0.925182,-2.519947 0.02385,-3.446712 l 14.734644,-14.41397 3.124234,3.179817 c 0.933406,0.949688 0.921893,2.528135 -0.02714,3.455719 l -13.273269,12.976338 3.236079,3.274786 13.268335,-12.971427 c 2.781301,-2.736084 2.817486,-7.177512 0.08635,-9.94798 l -6.348772,-6.474251 -18.03816,17.645365 z"
       id="path9"
       inkscape:connector-curvature="0"
       style="fill:#ffffff" />
  </g>
  <g
     inkscape:groupmode="layer"
     id="layer2"
     inkscape:label="BADGE"
     style="display:none"
     sodipodi:insensitive="true">
    <g
       style="display:inline"
       transform="translate(-340.00001,-581)"
       id="g4394"
       clip-path="none">
      <g
         id="g855">
        <g
           inkscape:groupmode="maskhelper"
           id="g870"
           clip-path="url(#clipPath873)"
           style="opacity:0.6;filter:url(#filter891)">
          <path
             transform="matrix(1.4999992,0,0,1.4999992,-29.999795,-237.54282)"
             d="m 264,552.36218 a 12,12 0 0 1 -12,12 12,12 0 0 1 -12,-12 12,12 0 0 1 12,-12 12,12 0 0 1 12,12 z"
             sodipodi:ry="12"
             sodipodi:rx="12"
             sodipodi:cy="552.36218"
             sodipodi:cx="252"
             id="path844"
             style="color:#000000;fill:#000000;fill-opacity:1;fill-rule:nonzero;stroke:none;stroke-width:4;marker:none;visibility:visible;display:inline;overflow:visible;enable-background:accumulate"
             sodipodi:type="arc" />
        </g>
        <g
           id="g862">
          <path
             sodipodi:type="arc"
             style="color:#000000;fill:#f5f5f5;fill-opacity:1;fill-rule:nonzero;stroke:none;stroke-width:4;marker:none;visibility:visible;display:inline;overflow:visible;enable-background:accumulate"
             id="path4398"
             sodipodi:cx="252"
             sodipodi:cy="552.36218"
             sodipodi:rx="12"
             sodipodi:ry="12"
             d="m 264,552.36218 a 12,12 0 0 1 -12,12 12,12 0 0 1 -12,-12 12,12 0 0 1 12,-12 12,12 0 0 1 12,12 z"
             transform="matrix(1.4999992,0,0,1.4999992,-29.999795,-238.54282)" />
          <path
             transform="matrix(1.25,0,0,1.25,33,-100.45273)"
             d="m 264,552.36218 a 12,12 0 0 1 -12,12 12,12 0 0 1 -12,-12 12,12 0 0 1 12,-12 12,12 0 0 1 12,12 z"
             sodipodi:ry="12"
             sodipodi:rx="12"
             sodipodi:cy="552.36218"
             sodipodi:cx="252"
             id="path4400"
             style="color:#000000;fill:#dd4814;fill-opacity:1;fill-rule:nonzero;stroke:none;stroke-width:4;marker:none;visibility:visible;display:inline;overflow:visible;enable-background:accumulate"
             sodipodi:type="arc" />
          <path
             sodipodi:type="star"
             style="color:#000000;fill:#f5f5f5;fill-opacity:1;fill-rule:nonzero;stroke:none;stroke-width:3;marker:none;visibility:visible;display:inline;overflow:visible;enable-background:accumulate"
             id="path4459"
             sodipodi:sides="5"
             sodipodi:cx="666.19574"
             sodipodi:cy="589.50385"
             sodipodi:r1="7.2431178"
             sodipodi:r2="4.3458705"
             sodipodi:arg1="1.0471976"
             sodipodi:arg2="1.6755161"
             inkscape:flatsided="false"
             inkscape:rounded="0.1"
             inkscape:randomized="0"
             d="m 669.8173,595.77657 c -0.39132,0.22593 -3.62645,-1.90343 -4.07583,-1.95066 -0.44938,-0.0472 -4.05653,1.36297 -4.39232,1.06062 -0.3358,-0.30235 0.68963,-4.03715 0.59569,-4.47913 -0.0939,-0.44198 -2.5498,-3.43681 -2.36602,-3.8496 0.18379,-0.41279 4.05267,-0.59166 4.44398,-0.81759 0.39132,-0.22593 2.48067,-3.48704 2.93005,-3.4398 0.44938,0.0472 1.81505,3.67147 2.15084,3.97382 0.3358,0.30236 4.08294,1.2817 4.17689,1.72369 0.0939,0.44198 -2.9309,2.86076 -3.11469,3.27355 -0.18379,0.41279 0.0427,4.27917 -0.34859,4.5051 z"
             transform="matrix(1.511423,-0.16366377,0.16366377,1.511423,-755.37346,-191.93651)" />
        </g>
      </g>
    </g>
  </g>
</svg>
